<svg
    version="1.0"
    xmlns="http://www.w3.org/2000/svg"
    xmlns:xlink="http://www.w3.org/1999/xlink"
    width="512"
    height="512"
    viewBox="0 0 512 512"
  >
    <svg id="global-svg-defs" version="1.0" xmlns="http://www.w3.org/2000/svg" width="0" height="0" viewBox="0 0 340.000000 250.000000" preserveAspectRatio="xMidYMid meet" color-interpolation-filters="sRGB" class="el-tooltip" style="margin: auto;" xmlns:xlink="http://www.w3.org/1999/xlink">
    <defs>
      <pattern id="watermark" patternUnits="userSpaceOnUse" width="100%" height="100%">
        <image xlink:href="https://www.logosc.cn/img/watermark/LOGOSC-watermark.png" x="0" y="0" width="100%" height="100%">
        </image>
      </pattern>
                    <linearGradient id="92" x1="0%" y1="0%" x2="100%" y2="0%">
          <stop offset="0%" stop-color="#fa71cd"></stop>
          <stop offset="100%" stop-color="#9b59b6"></stop>
        </linearGradient>
              <linearGradient id="93" x1="0%" y1="0%" x2="100%" y2="0%">
          <stop offset="0%" stop-color="#f9d423"></stop>
          <stop offset="100%" stop-color="#f83600"></stop>
        </linearGradient>
              <linearGradient id="94" x1="0%" y1="0%" x2="100%" y2="0%">
          <stop offset="0%" stop-color="#0064d2"></stop>
          <stop offset="100%" stop-color="#1cb0f6"></stop>
        </linearGradient>
              <linearGradient id="95" x1="0%" y1="0%" x2="100%" y2="0%">
          <stop offset="0%" stop-color="#f00978"></stop>
          <stop offset="100%" stop-color="#3f51b1"></stop>
        </linearGradient>
              <linearGradient id="96" x1="0%" y1="0%" x2="100%" y2="0%">
          <stop offset="0%" stop-color="#7873f5"></stop>
          <stop offset="100%" stop-color="#ec77ab"></stop>
        </linearGradient>
              <linearGradient id="97" x1="0%" y1="0%" x2="100%" y2="0%">
          <stop offset="0%" stop-color="#f9d423"></stop>
          <stop offset="100%" stop-color="#e14fad"></stop>
        </linearGradient>
              <linearGradient id="98" x1="0%" y1="0%" x2="100%" y2="0%">
          <stop offset="0%" stop-color="#009efd"></stop>
          <stop offset="100%" stop-color="#2af598"></stop>
        </linearGradient>
              <linearGradient id="99" x1="0%" y1="0%" x2="100%" y2="0%">
          <stop offset="0%" stop-color="#ffcc00"></stop>
          <stop offset="100%" stop-color="#00b140"></stop>
        </linearGradient>
              <linearGradient id="100" x1="0%" y1="0%" x2="100%" y2="0%">
          <stop offset="0%" stop-color="#d51007"></stop>
          <stop offset="100%" stop-color="#ff8177"></stop>
        </linearGradient>
              <linearGradient id="102" x1="0%" y1="0%" x2="100%" y2="0%">
          <stop offset="0%" stop-color="#a2b6df"></stop>
          <stop offset="100%" stop-color="#0c3483"></stop>
        </linearGradient>
              <linearGradient id="103" x1="0%" y1="0%" x2="100%" y2="0%">
          <stop offset="0%" stop-color="#7ac5d8"></stop>
          <stop offset="100%" stop-color="#eea2a2"></stop>
        </linearGradient>
              <linearGradient id="104" x1="0%" y1="0%" x2="100%" y2="0%">
          <stop offset="0%" stop-color="#00ecbc"></stop>
          <stop offset="100%" stop-color="#007adf"></stop>
        </linearGradient>
              <linearGradient id="105" x1="0%" y1="0%" x2="100%" y2="0%">
          <stop offset="0%" stop-color="#b88746"></stop>
          <stop offset="100%" stop-color="#fdf5a6"></stop>
        </linearGradient>
              <linearGradient id="107" x1="0%" y1="0%" x2="100%" y2="0%">
          <stop offset="0%" stop-color="#ffbf00"></stop>
          <stop offset="100%" stop-color="#26b5f8"></stop>
        </linearGradient>
          </defs>
  </svg>
    <rect
      x="0"
      y="0"
      width="100%"
      height="100%"
      fill="transparent"
      fill-opacity="1"
    ></rect>
    <svg data-v-0dd9719b="" version="1.0" xmlns="http://www.w3.org/2000/svg" xmlns:xlink="http://www.w3.org/1999/xlink" width="100%" height="100%" viewBox="0 0 100 100.00000762939453" preserveAspectRatio="xMidYMid meet" color-interpolation-filters="sRGB" style="margin: auto;"> <rect data-v-0dd9719b="" x="0" y="0" width="100%" height="100%" fill="#ffffff" fill-opacity="1" class="background" style="display: none;"/> <rect data-v-0dd9719b="" x="0" y="0" width="100%" height="100%" fill="url(#watermark)" fill-opacity="1" class="watermarklayer" style="display: none;"/> <g data-v-0dd9719b="" fill="#333" class="iconsvg-imagesvg"><rect fill="#333" fill-opacity="0" stroke-width="2" x="0" y="0" width="100" height="100" class="image-rect"/> <svg viewBox="0 0 60 60.09675577680065" x="0" y="0" width="100" height="100" class="image-svg-svg bn" style="overflow: visible;"><g hollow-target="iconBnFill" mask="url(#8438d376-9ced-42ba-abf9-9751036ab190)"><g><svg xmlns:x="http://ns.adobe.com/Extensibility/1.0/" xmlns:i="http://ns.adobe.com/AdobeIllustrator/10.0/" xmlns:graph="http://ns.adobe.com/Graphs/1.0/" xmlns="http://www.w3.org/2000/svg" xmlns:xlink="http://www.w3.org/1999/xlink" version="1.1" x="0" y="0" viewBox="4.96937 4.89669 90.06126 90.20661" style="overflow: visible;" xml:space="preserve" width="60" height="60.09675577680065" filtersec="colorsb7750095715" filter="url(#X1u1kYs4de2-rex4lh5Xf)"><g transform="scale(1, 1) skewX(0)"><g><g i:extraneous="self"><path class="st0" d="M95,44c-0.4-2.6-3-4.6-3.8-7c-0.8-2.5,0.2-5.6-1-7.9c-1.2-2.3-4.4-3.3-6-5.3c-1.6-2-1.8-5.3-3.7-7.1    c-1.9-1.7-5.2-1.6-7.4-3c-2.2-1.4-3.5-4.4-5.9-5.4c-2.4-1-5.5,0.3-8-0.3c-2.5-0.5-4.8-3-7.4-3.1c-2.5-0.1-5,2.1-7.6,2.5    c-2.6,0.3-5.6-1.1-8-0.4c-2.5,0.8-4.1,3.7-6.3,4.9c-2.3,1.2-5.6,0.8-7.6,2.4c-2,1.6-2.5,4.9-4.2,6.7c-1.7,1.9-5,2.7-6.4,4.8    C10.3,28,11,31.3,10,33.7c-1,2.4-3.8,4.2-4.3,6.7c-0.5,2.5,1.2,5.3,1.1,7.9C6.7,50.7,4.7,53.4,5,56c0.4,2.6,3,4.6,3.8,7    c0.8,2.5-0.2,5.6,1,7.9c1.2,2.3,4.4,3.3,6,5.3c1.6,2,1.8,5.3,3.7,7.1c1.9,1.7,5.2,1.6,7.4,3c2.2,1.4,3.5,4.4,5.9,5.4    c2.4,1,5.5-0.3,8,0.3c2.5,0.5,4.8,3,7.4,3.1c2.5,0.1,5-2.1,7.6-2.5c2.6-0.3,5.6,1.1,8,0.4c2.5-0.8,4.1-3.7,6.3-4.9    c2.3-1.2,5.6-0.8,7.6-2.4c2-1.6,2.5-4.9,4.2-6.7c1.7-1.9,5-2.7,6.4-4.8c1.4-2.2,0.7-5.4,1.7-7.8c1-2.4,3.8-4.2,4.3-6.7    c0.5-2.5-1.2-5.3-1.1-7.9C93.3,49.3,95.3,46.6,95,44z"/></g></g></g><defs><filter id="X1u1kYs4de2-rex4lh5Xf"><feColorMatrix type="matrix" values="0 0 0 0 0.19921875  0 0 0 0 0.19921875  0 0 0 0 0.19921875  0 0 0 1 0"/></filter></defs></svg></g> <g filter="url(#colors7960669682)"><svg xmlns="http://www.w3.org/2000/svg" xmlns:xlink="http://www.w3.org/1999/xlink" viewBox="0 0 68.714131773399 51.92187499999999" width="45" height="45.07257" x="7.5" y="7.512092888400325" class="image-svg-letter"><path transform="translate(-2.5191271551724137 51.52604166666666)" d="M5.98 0.21L5.98 0.21L4.64-0.63L3.30-3.87Q2.04-10.55 2.81-47.32L2.81-47.32L4.15-50.48Q6.12-51.89 9.14-51.40L9.14-51.40Q11.88-47.32 11.88-42.12Q11.88-36.91 11.88-31.92L11.88-31.92Q17.23-33.54 24.12-32.34L24.12-32.34Q24.12-36.42 23.87-40.50Q23.63-44.58 25.45-48.23L25.45-48.23Q26.72-50.20 30.45-49.15L30.45-49.15L32.70-46.83Q34.10-27.21 33.19-2.95L33.19-2.95Q32.27-1.13 30.69-0.67Q29.11-0.21 27.28-0.63L27.28-0.63L25.95-1.55Q24.54-6.54 24.54-12.20Q24.54-17.86 24.12-23.27L24.12-23.27Q18-25.38 11.88-24.68L11.88-24.68Q11.39-18.35 11.85-11.99Q12.30-5.63 10.05-0.21L10.05-0.21Q8.23 0.35 5.98 0.21ZM64.90 0.14L64.90 0.14L63.56-0.77Q62.86-10.34 64.13-28.13L64.13-28.13Q64.05-30.94 63.35-32.77L63.35-32.77Q61.10-38.18 57.80-32.41L57.80-32.41L56.46-27.56Q53.86-24.89 51.96-27.84L51.96-27.84L49.78-33.26Q46.34-37.34 45-32.77L45-32.77Q44.23-30.66 44.16-28.13L44.16-28.13L45.91-2.53Q45-0.77 43.42-0.32Q41.84 0.14 40.01-0.28L40.01-0.28L38.67-1.20L37.27-4.36Q36.35-11.46 37.27-40.57L37.27-40.57Q37.76-42.40 38.21-44.23Q38.67-46.05 40.01-47.81L40.01-47.81Q48.02-54.63 54.91-40.57L54.91-40.57Q58.78-52.24 68.63-47.25L68.63-47.25Q69.89-46.62 70.45-40.61Q71.02-34.59 71.19-22.71Q71.37-10.83 70.80-2.11L70.80-2.11Q69.89-0.28 68.31 0.18Q66.73 0.63 64.90 0.14Z"/></svg></g></g><mask id="8438d376-9ced-42ba-abf9-9751036ab190"><g fill="white"><svg xmlns:x="http://ns.adobe.com/Extensibility/1.0/" xmlns:i="http://ns.adobe.com/AdobeIllustrator/10.0/" xmlns:graph="http://ns.adobe.com/Graphs/1.0/" xmlns="http://www.w3.org/2000/svg" xmlns:xlink="http://www.w3.org/1999/xlink" version="1.1" x="0" y="0" viewBox="4.96937 4.89669 90.06126 90.20661" style="overflow: visible;" xml:space="preserve" width="60" height="60.09675577680065" filtersec="colorsb7750095715"><g transform="scale(1, 1) skewX(0)"><g><g i:extraneous="self"><path d="M95,44c-0.4-2.6-3-4.6-3.8-7c-0.8-2.5,0.2-5.6-1-7.9c-1.2-2.3-4.4-3.3-6-5.3c-1.6-2-1.8-5.3-3.7-7.1    c-1.9-1.7-5.2-1.6-7.4-3c-2.2-1.4-3.5-4.4-5.9-5.4c-2.4-1-5.5,0.3-8-0.3c-2.5-0.5-4.8-3-7.4-3.1c-2.5-0.1-5,2.1-7.6,2.5    c-2.6,0.3-5.6-1.1-8-0.4c-2.5,0.8-4.1,3.7-6.3,4.9c-2.3,1.2-5.6,0.8-7.6,2.4c-2,1.6-2.5,4.9-4.2,6.7c-1.7,1.9-5,2.7-6.4,4.8    C10.3,28,11,31.3,10,33.7c-1,2.4-3.8,4.2-4.3,6.7c-0.5,2.5,1.2,5.3,1.1,7.9C6.7,50.7,4.7,53.4,5,56c0.4,2.6,3,4.6,3.8,7    c0.8,2.5-0.2,5.6,1,7.9c1.2,2.3,4.4,3.3,6,5.3c1.6,2,1.8,5.3,3.7,7.1c1.9,1.7,5.2,1.6,7.4,3c2.2,1.4,3.5,4.4,5.9,5.4    c2.4,1,5.5-0.3,8,0.3c2.5,0.5,4.8,3,7.4,3.1c2.5,0.1,5-2.1,7.6-2.5c2.6-0.3,5.6,1.1,8,0.4c2.5-0.8,4.1-3.7,6.3-4.9    c2.3-1.2,5.6-0.8,7.6-2.4c2-1.6,2.5-4.9,4.2-6.7c1.7-1.9,5-2.7,6.4-4.8c1.4-2.2,0.7-5.4,1.7-7.8c1-2.4,3.8-4.2,4.3-6.7    c0.5-2.5-1.2-5.3-1.1-7.9C93.3,49.3,95.3,46.6,95,44z"/></g></g></g><defs/></svg></g> <g fill="black"><svg xmlns="http://www.w3.org/2000/svg" xmlns:xlink="http://www.w3.org/1999/xlink" viewBox="0 0 68.714131773399 51.92187499999999" width="45" height="45.07257" x="7.5" y="7.512092888400325" class="image-svg-letter"><path transform="translate(-2.5191271551724137 51.52604166666666)" d="M5.98 0.21L5.98 0.21L4.64-0.63L3.30-3.87Q2.04-10.55 2.81-47.32L2.81-47.32L4.15-50.48Q6.12-51.89 9.14-51.40L9.14-51.40Q11.88-47.32 11.88-42.12Q11.88-36.91 11.88-31.92L11.88-31.92Q17.23-33.54 24.12-32.34L24.12-32.34Q24.12-36.42 23.87-40.50Q23.63-44.58 25.45-48.23L25.45-48.23Q26.72-50.20 30.45-49.15L30.45-49.15L32.70-46.83Q34.10-27.21 33.19-2.95L33.19-2.95Q32.27-1.13 30.69-0.67Q29.11-0.21 27.28-0.63L27.28-0.63L25.95-1.55Q24.54-6.54 24.54-12.20Q24.54-17.86 24.12-23.27L24.12-23.27Q18-25.38 11.88-24.68L11.88-24.68Q11.39-18.35 11.85-11.99Q12.30-5.63 10.05-0.21L10.05-0.21Q8.23 0.35 5.98 0.21ZM64.90 0.14L64.90 0.14L63.56-0.77Q62.86-10.34 64.13-28.13L64.13-28.13Q64.05-30.94 63.35-32.77L63.35-32.77Q61.10-38.18 57.80-32.41L57.80-32.41L56.46-27.56Q53.86-24.89 51.96-27.84L51.96-27.84L49.78-33.26Q46.34-37.34 45-32.77L45-32.77Q44.23-30.66 44.16-28.13L44.16-28.13L45.91-2.53Q45-0.77 43.42-0.32Q41.84 0.14 40.01-0.28L40.01-0.28L38.67-1.20L37.27-4.36Q36.35-11.46 37.27-40.57L37.27-40.57Q37.76-42.40 38.21-44.23Q38.67-46.05 40.01-47.81L40.01-47.81Q48.02-54.63 54.91-40.57L54.91-40.57Q58.78-52.24 68.63-47.25L68.63-47.25Q69.89-46.62 70.45-40.61Q71.02-34.59 71.19-22.71Q71.37-10.83 70.80-2.11L70.80-2.11Q69.89-0.28 68.31 0.18Q66.73 0.63 64.90 0.14Z"/></svg></g></mask></svg> <defs><filter id="colors7960669682"><feColorMatrix type="matrix" values="0 0 0 0 0.19921875  0 0 0 0 0.19921875  0 0 0 0 0.19921875  0 0 0 1 0" class="icon-fecolormatrix"/></filter> <filter id="colorsf4518227397"><feColorMatrix type="matrix" values="0 0 0 0 0.99609375  0 0 0 0 0.99609375  0 0 0 0 0.99609375  0 0 0 1 0" class="icon-fecolormatrix"/></filter> <filter id="colorsb7750095715"><feColorMatrix type="matrix" values="0 0 0 0 0  0 0 0 0 0  0 0 0 0 0  0 0 0 1 0" class="icon-fecolormatrix"/></filter></defs></g><defs v-gra="od"/></svg>
  </svg>